<svg width="108" height="87" viewBox="0 0 108 87" fill="none" xmlns="http://www.w3.org/2000/svg">
<path d="M22.5 76.125H85.5C90.4706 76.125 94.5 72.8791 94.5 68.875V18.125C94.5 14.1209 90.4706 10.875 85.5 10.875H22.5C17.5294 10.875 13.5 14.1209 13.5 18.125V68.875C13.5 72.8791 17.5294 76.125 22.5 76.125ZM22.5 76.125L72 36.25L94.5 54.375M45 30.8125C45 33.8155 41.9779 36.25 38.25 36.25C34.5221 36.25 31.5 33.8155 31.5 30.8125C31.5 27.8095 34.5221 25.375 38.25 25.375C41.9779 25.375 45 27.8095 45 30.8125Z" stroke="#1E1E1E" stroke-width="4" stroke-linecap="round" stroke-linejoin="round"/>
</svg>
